<mxfile host="app.diagrams.net" modified="2023-04-26T13:13:07.828Z" agent="Mozilla/5.0 (Windows NT 10.0; Win64; x64) AppleWebKit/537.36 (KHTML, like Gecko) Chrome/112.0.0.0 Safari/537.36" version="21.2.2" etag="XM6ndh-H4Ejum2Nm-z5X" type="github">
  <diagram name="Page-1" id="3TmXqRkr3Vu7VDDnEdmw">
    <mxGraphModel>
      <root>
        <mxCell id="0" />
        <mxCell id="1" parent="0" />
      </root>
    </mxGraphModel>
  </diagram>
</mxfile>
